<?xml version="1.0" standalone="no"?>
<!DOCTYPE svg PUBLIC "-//W3C//DTD SVG 20010904//EN"
 "http://www.w3.org/TR/2001/REC-SVG-20010904/DTD/svg10.dtd">
<svg version="1.0" xmlns="http://www.w3.org/2000/svg"
 width="512.000000pt" height="512.000000pt" viewBox="0 0 512.000000 512.000000"
 preserveAspectRatio="xMidYMid meet">
<metadata>
Created by potrace 1.14, written by Peter Selinger 2001-2017
</metadata>
<g transform="translate(0.000000,512.000000) scale(0.100000,-0.100000)"
fill="#000000" stroke="none">
<path d="M2378 5115 c-2 -1 -39 -5 -82 -9 -44 -4 -82 -8 -85 -10 -3 -2 -31 -7
-61 -11 -188 -23 -481 -113 -683 -210 -672 -321 -1168 -908 -1371 -1620 -43
-151 -66 -278 -86 -465 -8 -81 -5 -463 5 -520 3 -19 13 -78 21 -130 84 -521
336 -1011 714 -1388 227 -226 490 -408 760 -526 47 -21 94 -41 105 -46 88 -39
362 -119 469 -135 21 -4 48 -8 60 -11 11 -2 48 -7 81 -10 33 -4 64 -9 69 -12
21 -12 456 -9 562 4 870 105 1615 631 1998 1409 90 181 137 307 182 480 65
254 79 376 79 675 -1 238 -9 319 -55 536 -203 953 -980 1731 -1939 1944 -182
40 -303 53 -523 56 -119 1 -218 1 -220 -1z"/>
</g>
</svg>
